<?xml version="1.0"?>
<svg xmlns="http://www.w3.org/2000/svg" id="Capa_1" enable-background="new 0 0 512 512" height="512px" viewBox="0 0 512 512" width="512px"><g><g><path d="m415.6 30.18v-30.18h-30v30.18h-66.4v-30.18h-30v30.18h-66.4v-30.18h-30v30.18h-66.4v-30.18h-30v30.18h-96.4v481.82h393.213l118.787-118.787v-363.033zm-319.2 30v29.88h30v-29.88h66.4v29.88h30v-29.88h66.4v29.88h30v-29.88h66.4v29.88h30v-29.88h66.4v59.85h-452v-59.85zm-66.4 89.85h452v221.97h-110v110h-342zm430.787 251.97-58.787 58.787v-58.787z" fill="#FFFFFF"/></g><g><path d="m256.52 269.77h-31.04v-29.48h81.04v-30h-111.04v89.48h61.04c16.542 0 30 13.458 30 30s-13.458 30-30 30h-61.04v30h61.04c33.084 0 60-26.916 60-60s-26.916-60-60-60z" fill="#FFFFFF"/></g></g></svg>
